<svg xmlns="http://www.w3.org/2000/svg" width="280" height="180" viewBox="0 0 280 180">
  <rect x="4" y="4" width="272" height="172" rx="20" fill="#1a47b8"/>
  <g fill="#fff">
    <path d="M45 118 L59 62 H81 L67 118 H45 Z"/>
    <path d="M87 118 L95 62 H114 L105 118 H87 Z"/>
    <path d="M179 64 c-7 0-16 3-22 7l4 14c5-3 13-6 19-6 4 0 7 1 7 4 0 2-2 4-8 6-13 5-19 10-19 19 0 10 9 16 21 16 7 0 13-2 18-4l-4-13c-4 2-9 4-14 4-4 0-6-2-6-4 0-3 2-4 9-7 12-5 18-10 18-19 0-9-8-17-23-17z"/>
    <path d="M122 118 L132 62 H151 L141 118 H122 Z"/>
    <path d="M152 62 H173 L185 118 H165 L152 62 Z"/>
  </g>
</svg>